<svg class="main-svg" xmlns="http://www.w3.org/2000/svg" xmlns:xlink="http://www.w3.org/1999/xlink" width="600" height="400"><rect x="0" y="0" width="600" height="400" style="fill: rgb(255, 255, 255); fill-opacity: 1;"/><defs id="defs-5a1c7d"><g class="clips"><clipPath class="axesclip" id="clip5a1c7dx"><rect x="54.77034120734907" y="0" width="541.2926509186352" height="400"/></clipPath><clipPath class="axesclip" id="clip5a1c7dy"><rect x="0" y="23.740157480314956" width="600" height="347.4502405949256"/></clipPath><clipPath class="axesclip" id="clip5a1c7dxy"><rect x="54.77034120734907" y="23.740157480314956" width="541.2926509186352" height="347.4502405949256"/></clipPath><clipPath class="plotclip" id="clip5a1c7dxyplot"><rect width="541.2926509186352" height="347.4502405949256"/></clipPath></g></defs><g class="bglayer"><rect class="bg" x="54.77034120734907" y="23.740157480314956" width="541.2926509186352" height="347.4502405949256" style="fill: rgb(255, 255, 255); fill-opacity: 1; stroke-width: 0px;"/></g><g class="layer-below"><g class="imagelayer"/><g class="shapelayer"/></g><g class="cartesianlayer"><g class="subplot xy"><g class="layer-subplot"><g class="shapelayer"/><g class="imagelayer"/></g><g class="gridlayer" transform="translate(54.77034120734907,23.740157480314956)"><path class="xgrid crisp" d="M0,0v347.4502405949256" transform="translate(124.95,0)" style="stroke: rgb(238, 238, 238); stroke-opacity: 1; stroke-width: 1px;"/><path class="xgrid crisp" d="M0,0v347.4502405949256" transform="translate(316.86,0)" style="stroke: rgb(238, 238, 238); stroke-opacity: 1; stroke-width: 1px;"/><path class="xgrid crisp" d="M0,0v347.4502405949256" transform="translate(508.77,0)" style="stroke: rgb(238, 238, 238); stroke-opacity: 1; stroke-width: 1px;"/><path class="ygrid crisp" d="M0,0h541.2926509186352" transform="translate(0,326.78)" style="stroke: rgb(238, 238, 238); stroke-opacity: 1; stroke-width: 1px;"/><path class="ygrid crisp" d="M0,0h541.2926509186352" transform="translate(0,243.01)" style="stroke: rgb(238, 238, 238); stroke-opacity: 1; stroke-width: 1px;"/><path class="ygrid crisp" d="M0,0h541.2926509186352" transform="translate(0,159.25)" style="stroke: rgb(238, 238, 238); stroke-opacity: 1; stroke-width: 1px;"/><path class="ygrid crisp" d="M0,0h541.2926509186352" transform="translate(0,75.48)" style="stroke: rgb(238, 238, 238); stroke-opacity: 1; stroke-width: 1px;"/></g><g class="overgrid"/><g class="zerolinelayer" transform="translate(54.77034120734907,23.740157480314956)"/><g class="overzero"/><g class="plot" transform="translate(54.77034120734907, 23.740157480314956)" clip-path="url(#clip5a1c7dxyplot)"><g class="imagelayer"/><g class="maplayer"/><g class="barlayer"/><g class="carpetlayer"/><g class="boxlayer"/><g class="scatterlayer"><g class="trace scatter trace681dc4" style="stroke-miterlimit: 2; opacity: 1;"><path class="js-line" d="M0,147.19L11.16,170.7L16.74,180.32L27.9,196.47L33.48,203.3L44.64,215.06L50.22,220.15L61.38,229.07L66.96,232.99L83.71,243.03L89.29,245.9L106.03,253.36L111.61,255.52L133.93,262.84L139.51,264.38L161.83,269.67L167.41,270.79L195.31,275.44L200.89,276.2L234.37,279.8L239.95,280.26L279.02,282.56L284.6,282.78L329.24,283.63L334.82,283.65L390.62,282.8L396.2,282.62L452.01,280.17L457.59,279.86L524.55,275.28L530.13,274.83L541.29,273.92" style="vector-effect: non-scaling-stroke; fill: none; stroke: rgb(0, 0, 0); stroke-opacity: 1; stroke-width: 1px; opacity: 1;"/><g class="points"/></g><g class="trace scatter trace133ea1" style="stroke-miterlimit: 2; opacity: 1;"><path class="js-line" d="M0,17.37L11.16,58.68L16.74,75.76L27.9,104.69L33.48,117.08L44.64,138.64L50.22,148.09L61.38,164.85L66.96,172.33L78.12,185.79L83.71,191.88L100.45,208.02L106.03,212.8L122.77,225.67L128.35,229.53L145.09,240.06L150.67,243.26L172.99,254.75L178.57,257.33L200.89,266.73L206.47,268.87L234.37,278.52L239.95,280.27L273.44,289.66L279.02,291.07L318.08,299.91L323.66,301.04L368.3,309.16L373.88,310.07L424.11,317.4L429.69,318.13L491.07,325.26L496.65,325.83L541.29,330.08" style="vector-effect: non-scaling-stroke; fill: none; stroke: rgb(0, 0, 0); stroke-opacity: 1; stroke-width: 1px; opacity: 1; stroke-dasharray: 9px, 9px;"/><g class="points"/></g><g class="trace scatter trace7813a6" style="stroke-miterlimit: 2; opacity: 1;"><g class="points"><path class="point" d="M4,0A4,4 0 1,1 0,-4A4,4 0 0,1 4,0Z" transform="translate(239.95,280.58)" style="opacity: 1; stroke-width: 1px; fill: rgb(62, 164, 78); fill-opacity: 1; stroke: rgb(0, 0, 0); stroke-opacity: 1;"/></g></g></g></g><g class="overplot"/><path class="xlines crisp" transform="translate(54.77034120734907,23.740157480314956)" d="M-1,347.9502405949256h543.2926509186352" style="fill: none; stroke-width: 1px; stroke: rgb(0, 0, 0); stroke-opacity: 1;"/><path class="ylines crisp" transform="translate(54.77034120734907,23.740157480314956)" d="M-0.5,-1v348.4502405949256" stroke-width="1px" style="fill: none; stroke: rgb(0, 0, 0); stroke-opacity: 1;"/><g class="overlines"/><g class="xaxislayer" transform="translate(54.77034120734907,23.740157480314956)"><path class="xtick ticks crisp" d="M0,347.4502405949256v-5" transform="translate(124.95,0)" style="stroke: rgb(0, 0, 0); stroke-opacity: 1; stroke-width: 1px;"/><path class="xtick ticks crisp" d="M0,347.4502405949256v-5" transform="translate(316.86,0)" style="stroke: rgb(0, 0, 0); stroke-opacity: 1; stroke-width: 1px;"/><path class="xtick ticks crisp" d="M0,347.4502405949256v-5" transform="translate(508.77,0)" style="stroke: rgb(0, 0, 0); stroke-opacity: 1; stroke-width: 1px;"/><g class="xtick"><text text-anchor="middle" x="0" y="361.4502405949256" transform="translate(124.95,0)" style="font-family: sans-serif; font-size: 11px; fill: rgb(0, 0, 0); fill-opacity: 1; visibility: visible; white-space: pre;">5</text></g><g class="xtick"><text text-anchor="middle" x="0" y="361.4502405949256" transform="translate(316.86,0)" style="font-family: sans-serif; font-size: 11px; fill: rgb(0, 0, 0); fill-opacity: 1; visibility: visible; white-space: pre;">10</text></g><g class="xtick"><text text-anchor="middle" x="0" y="361.4502405949256" transform="translate(508.77,0)" style="font-family: sans-serif; font-size: 11px; fill: rgb(0, 0, 0); fill-opacity: 1; visibility: visible; white-space: pre;">15</text></g></g><g class="yaxislayer" transform="translate(54.77034120734907,23.740157480314956)"><path class="ytick ticks crisp" d="M0,0h5" transform="translate(0,326.78)" style="stroke: rgb(0, 0, 0); stroke-opacity: 1; stroke-width: 1px;"/><path class="ytick ticks crisp" d="M0,0h5" transform="translate(0,243.01)" style="stroke: rgb(0, 0, 0); stroke-opacity: 1; stroke-width: 1px;"/><path class="ytick ticks crisp" d="M0,0h5" transform="translate(0,159.25)" style="stroke: rgb(0, 0, 0); stroke-opacity: 1; stroke-width: 1px;"/><path class="ytick ticks crisp" d="M0,0h5" transform="translate(0,75.48)" style="stroke: rgb(0, 0, 0); stroke-opacity: 1; stroke-width: 1px;"/><g class="ytick" data-bb="556"><text text-anchor="end" x="-3" y="5.5" transform="translate(0,326.78)" style="font-family: sans-serif; font-size: 11px; fill: rgb(0, 0, 0); fill-opacity: 1; visibility: visible; white-space: pre;">0.05</text></g><g class="ytick" data-bb="557"><text text-anchor="end" x="-3" y="5.5" transform="translate(0,243.01)" style="font-family: sans-serif; font-size: 11px; fill: rgb(0, 0, 0); fill-opacity: 1; visibility: visible; white-space: pre;">0.10</text></g><g class="ytick" data-bb="558"><text text-anchor="end" x="-3" y="5.5" transform="translate(0,159.25)" style="font-family: sans-serif; font-size: 11px; fill: rgb(0, 0, 0); fill-opacity: 1; visibility: visible; white-space: pre;">0.15</text></g><g class="ytick" data-bb="559"><text text-anchor="end" x="-3" y="5.5" transform="translate(0,75.48)" style="font-family: sans-serif; font-size: 11px; fill: rgb(0, 0, 0); fill-opacity: 1; visibility: visible; white-space: pre;">0.20</text></g></g><g class="overaxes"/></g></g><g class="ternarylayer"/><g class="geolayer"/><g class="layer-above"><g class="imagelayer"/><g class="shapelayer"/></g><g class="pielayer"/><g class="glimages"/><g class="infolayer"><g class="g-gtitle"/><g class="g-xtitle" data-bb="554" transform="translate(0,-29.6875)"><text class="xtitle" x="325.4166666666667" y="426.1903980752406" text-anchor="middle" style="font-family: sans-serif; font-size: 15px; fill: rgb(0, 0, 0); opacity: 1; font-weight: normal; white-space: pre; visibility: visible;">k</text></g><g class="g-ytitle" data-bb="555"><text class="ytitle" transform="rotate(-90,14.77034120734907,197.46527777777777) translate(0, 0)" x="14.77034120734907" y="197.46527777777777" text-anchor="middle" style="font-family: sans-serif; font-size: 15px; fill: rgb(0, 0, 0); opacity: 1; font-weight: normal; white-space: pre; visibility: visible;">c′(k)</text></g></g></svg>