<svg class="main-svg" xmlns="http://www.w3.org/2000/svg" xmlns:xlink="http://www.w3.org/1999/xlink" width="600" height="400"><rect x="0" y="0" width="600" height="400" style="fill: rgb(255, 255, 255); fill-opacity: 1;"/><defs id="defs-c4729f"><g class="clips"><clipPath class="axesclip" id="clipc4729fx"><rect x="45.881452318460184" y="0" width="550.181539807524" height="400"/></clipPath><clipPath class="axesclip" id="clipc4729fy"><rect x="0" y="23.740157480314956" width="600" height="347.4502405949256"/></clipPath><clipPath class="axesclip" id="clipc4729fxy"><rect x="45.881452318460184" y="23.740157480314956" width="550.181539807524" height="347.4502405949256"/></clipPath><clipPath class="plotclip" id="clipc4729fxyplot"><rect width="550.181539807524" height="347.4502405949256"/></clipPath></g></defs><g class="layer-below"><g class="imagelayer"/><g class="shapelayer"/></g><g class="cartesianlayer"><g class="subplot xy"><rect class="bg" x="45.881452318460184" y="23.740157480314956" width="550.181539807524" height="347.4502405949256" style="stroke-width: 0px; fill: rgb(255, 255, 255); fill-opacity: 1;"/><g class="layer-subplot"><g class="shapelayer"/><g class="imagelayer"/></g><g class="gridlayer" transform="translate(45.881452318460184,23.740157480314956)"><path class="xgrid crisp" d="M0,0v347.4502405949256" transform="translate(141.58,0)" style="stroke: rgb(238, 238, 238); stroke-opacity: 1; stroke-width: 1px;"/><path class="xgrid crisp" d="M0,0v347.4502405949256" transform="translate(318.79,0)" style="stroke: rgb(238, 238, 238); stroke-opacity: 1; stroke-width: 1px;"/><path class="xgrid crisp" d="M0,0v347.4502405949256" transform="translate(496.01,0)" style="stroke: rgb(238, 238, 238); stroke-opacity: 1; stroke-width: 1px;"/><path class="ygrid crisp" d="M0,0h550.181539807524" transform="translate(0,262.24)" style="stroke: rgb(238, 238, 238); stroke-opacity: 1; stroke-width: 1px;"/><path class="ygrid crisp" d="M0,0h550.181539807524" transform="translate(0,149.41)" style="stroke: rgb(238, 238, 238); stroke-opacity: 1; stroke-width: 1px;"/><path class="ygrid crisp" d="M0,0h550.181539807524" transform="translate(0,36.59)" style="stroke: rgb(238, 238, 238); stroke-opacity: 1; stroke-width: 1px;"/></g><g class="overgrid"/><g class="zerolinelayer" transform="translate(45.881452318460184,23.740157480314956)"/><g class="overzero"/><g class="plot" transform="translate(45.881452318460184, 23.740157480314956)" clip-path="url(#clipc4729fxyplot)"><g class="imagelayer"/><g class="maplayer"/><g class="barlayer"/><g class="boxlayer"/><g class="scatterlayer"><g class="trace scatter trace7a83d1" style="stroke-miterlimit: 2; opacity: 1;"><path class="js-line" d="M21.05,300.8L36.5,285.69L41.66,281.09L62.27,264.29L67.42,260.41L93.19,242.41L98.34,239.03L129.26,219.98L134.41,216.96L170.48,196.8L175.64,194.03L222.01,169.96L227.16,167.37L299.31,131.9L304.46,129.41L469.35,48.97L474.51,46.38L531.19,17.37" style="vector-effect: non-scaling-stroke; fill: none; stroke: rgb(0, 0, 0); stroke-opacity: 1; stroke-width: 1px; opacity: 1; stroke-dasharray: 3px, 3px;"/><g class="points"/></g><g class="trace scatter traceb8006e" style="stroke-miterlimit: 2; opacity: 1;"><g class="points"><path class="point" d="M2,0A2,2 0 1,1 0,-2A2,2 0 0,1 2,0Z" transform="translate(67.42,260.41)" style="opacity: 1; stroke-width: 1px; fill: rgb(227, 111, 71); fill-opacity: 1; stroke: rgb(0, 0, 0); stroke-opacity: 1;"/></g></g><g class="trace scatter tracea3fc2e" style="stroke-miterlimit: 2; opacity: 1;"><path class="js-line" d="M0,330.08L134.85,190.74" style="vector-effect: non-scaling-stroke; fill: none; stroke: rgb(0, 0, 0); stroke-opacity: 1; stroke-width: 1px; opacity: 1;"/><g class="points"/></g><g class="trace scatter trace90c3eb" style="stroke-miterlimit: 2; opacity: 1;"><g class="points"><path class="point" d="M2,0A2,2 0 1,1 0,-2A2,2 0 0,1 2,0Z" transform="translate(170.48,196.8)" style="opacity: 1; stroke-width: 1px; fill: rgb(195, 113, 210); fill-opacity: 1; stroke: rgb(0, 0, 0); stroke-opacity: 1;"/></g></g><g class="trace scatter trace4426ab" style="stroke-miterlimit: 2; opacity: 1;"><path class="js-line" d="M100.92,240.21L240.04,153.38" style="vector-effect: non-scaling-stroke; fill: none; stroke: rgb(0, 0, 0); stroke-opacity: 1; stroke-width: 1px; opacity: 1;"/><g class="points"/></g><g class="trace scatter trace2b84b8" style="stroke-miterlimit: 2; opacity: 1;"><g class="points"><path class="point" d="M2,0A2,2 0 1,1 0,-2A2,2 0 0,1 2,0Z" transform="translate(273.54,144.43)" style="opacity: 1; stroke-width: 1px; fill: rgb(0, 170, 174); fill-opacity: 1; stroke: rgb(0, 0, 0); stroke-opacity: 1;"/></g></g><g class="trace scatter tracef3d7a9" style="stroke-miterlimit: 2; opacity: 1;"><path class="js-line" d="M203.4,177.03L343.68,111.82" style="vector-effect: non-scaling-stroke; fill: none; stroke: rgb(0, 0, 0); stroke-opacity: 1; stroke-width: 1px; opacity: 1;"/><g class="points"/></g><g class="trace scatter tracea1910f" style="stroke-miterlimit: 2; opacity: 1;"><g class="points"><path class="point" d="M2,0A2,2 0 1,1 0,-2A2,2 0 0,1 2,0Z" transform="translate(376.6,94.58)" style="opacity: 1; stroke-width: 1px; fill: rgb(198, 130, 37); fill-opacity: 1; stroke: rgb(0, 0, 0); stroke-opacity: 1;"/></g></g><g class="trace scatter trace472141" style="stroke-miterlimit: 2; opacity: 1;"><path class="js-line" d="M306.21,121.22L446.99,67.94" style="vector-effect: non-scaling-stroke; fill: none; stroke: rgb(0, 0, 0); stroke-opacity: 1; stroke-width: 1px; opacity: 1;"/><g class="points"/></g><g class="trace scatter trace6b9467" style="stroke-miterlimit: 2; opacity: 1;"><g class="points"><path class="point" d="M2,0A2,2 0 1,1 0,-2A2,2 0 0,1 2,0Z" transform="translate(479.66,43.78)" style="opacity: 1; stroke-width: 1px; fill: rgb(142, 151, 30); fill-opacity: 1; stroke: rgb(0, 0, 0); stroke-opacity: 1;"/></g></g><g class="trace scatter trace983a1f" style="stroke-miterlimit: 2; opacity: 1;"><path class="js-line" d="M409.14,66.64L550.18,20.93" style="vector-effect: non-scaling-stroke; fill: none; stroke: rgb(0, 0, 0); stroke-opacity: 1; stroke-width: 1px; opacity: 1;"/><g class="points"/></g></g></g><g class="overplot"/><path class="xlines crisp" transform="translate(45.881452318460184,23.740157480314956)" d="M-1,347.9502405949256h552.181539807524" style="fill: none; stroke-width: 1px; stroke: rgb(0, 0, 0); stroke-opacity: 1;"/><path class="ylines crisp" transform="translate(45.881452318460184,23.740157480314956)" d="M-0.5,-1v348.4502405949256" stroke-width="1px" style="fill: none; stroke: rgb(0, 0, 0); stroke-opacity: 1;"/><g class="overlines"/><g class="xaxislayer" transform="translate(45.881452318460184,23.740157480314956)"><path class="xtick ticks crisp" d="M0,347.4502405949256v-5" transform="translate(141.58,0)" style="stroke: rgb(0, 0, 0); stroke-opacity: 1; stroke-width: 1px;"/><path class="xtick ticks crisp" d="M0,347.4502405949256v-5" transform="translate(318.79,0)" style="stroke: rgb(0, 0, 0); stroke-opacity: 1; stroke-width: 1px;"/><path class="xtick ticks crisp" d="M0,347.4502405949256v-5" transform="translate(496.01,0)" style="stroke: rgb(0, 0, 0); stroke-opacity: 1; stroke-width: 1px;"/><g class="xtick"><text text-anchor="middle" x="0" y="361.4502405949256" transform="translate(141.58,0)" style="font-family: sans-serif; font-size: 11px; fill: rgb(0, 0, 0); fill-opacity: 1; visibility: visible; white-space: pre;">5</text></g><g class="xtick"><text text-anchor="middle" x="0" y="361.4502405949256" transform="translate(318.79,0)" style="font-family: sans-serif; font-size: 11px; fill: rgb(0, 0, 0); fill-opacity: 1; visibility: visible; white-space: pre;">10</text></g><g class="xtick"><text text-anchor="middle" x="0" y="361.4502405949256" transform="translate(496.01,0)" style="font-family: sans-serif; font-size: 11px; fill: rgb(0, 0, 0); fill-opacity: 1; visibility: visible; white-space: pre;">15</text></g></g><g class="yaxislayer" transform="translate(45.881452318460184,23.740157480314956)"><path class="ytick ticks crisp" d="M0,0h5" transform="translate(0,262.24)" style="stroke: rgb(0, 0, 0); stroke-opacity: 1; stroke-width: 1px;"/><path class="ytick ticks crisp" d="M0,0h5" transform="translate(0,149.41)" style="stroke: rgb(0, 0, 0); stroke-opacity: 1; stroke-width: 1px;"/><path class="ytick ticks crisp" d="M0,0h5" transform="translate(0,36.59)" style="stroke: rgb(0, 0, 0); stroke-opacity: 1; stroke-width: 1px;"/><g class="ytick"><text text-anchor="end" x="-3" y="5.5" transform="translate(0,262.24)" style="font-family: sans-serif; font-size: 11px; fill: rgb(0, 0, 0); fill-opacity: 1; visibility: visible; white-space: pre;">1.0</text></g><g class="ytick"><text text-anchor="end" x="-3" y="5.5" transform="translate(0,149.41)" style="font-family: sans-serif; font-size: 11px; fill: rgb(0, 0, 0); fill-opacity: 1; visibility: visible; white-space: pre;">1.5</text></g><g class="ytick"><text text-anchor="end" x="-3" y="5.5" transform="translate(0,36.59)" style="font-family: sans-serif; font-size: 11px; fill: rgb(0, 0, 0); fill-opacity: 1; visibility: visible; white-space: pre;">2.0</text></g></g><g class="overaxes"/></g></g><g class="ternarylayer"/><g class="layer-above"><g class="imagelayer"/><g class="shapelayer"/></g><g class="pielayer"/><g class="glimages"/><g class="geoimages"/><text class="js-plot-link-container" y="391" text-anchor="end" x="593" style="font-family: 'Open Sans', Arial, sans-serif; font-size: 12px; fill: rgb(68, 68, 68); pointer-events: all; visibility: visible;"><tspan class="js-link-to-tool"/><tspan class="js-link-spacer"/><tspan class="js-sourcelinks"/></text><g class="infolayer"><g class="g-gtitle"/><g class="g-xtitle" data-bb="1800" transform="translate(0,-29.1875)"><text class="xtitle" x="320.9722222222222" y="426.1903980752406" text-anchor="middle" style="font-family: sans-serif; font-size: 15px; fill: rgb(0, 0, 0); opacity: 1; font-weight: normal; white-space: pre; visibility: visible;">k</text></g><g class="g-ytitle" data-bb="1801" transform="translate(8.130859375,0)"><text class="ytitle" transform="rotate(-90,5.881452318460184,197.46527777777777) translate(0, 0)" x="5.881452318460184" y="197.46527777777777" text-anchor="middle" style="font-family: sans-serif; font-size: 15px; fill: rgb(0, 0, 0); opacity: 1; font-weight: normal; white-space: pre; visibility: visible;">c(k)</text></g></g></svg>