<svg class="main-svg" xmlns="http://www.w3.org/2000/svg" xmlns:xlink="http://www.w3.org/1999/xlink" width="600" height="400"><rect x="0" y="0" width="600" height="400" style="fill: rgb(255, 255, 255); fill-opacity: 1;"/><defs id="defs-660f86"><g class="clips"><clipPath class="axesclip" id="clip660f86x"><rect x="45.881452318460184" y="0" width="550.181539807524" height="400"/></clipPath><clipPath class="axesclip" id="clip660f86y"><rect x="0" y="23.740157480314956" width="600" height="347.4502405949256"/></clipPath><clipPath class="axesclip" id="clip660f86xy"><rect x="45.881452318460184" y="23.740157480314956" width="550.181539807524" height="347.4502405949256"/></clipPath><clipPath class="plotclip" id="clip660f86xyplot"><rect width="550.181539807524" height="347.4502405949256"/></clipPath></g></defs><g class="layer-below"><g class="imagelayer"/><g class="shapelayer"/></g><g class="cartesianlayer"><g class="subplot xy"><rect class="bg" x="45.881452318460184" y="23.740157480314956" width="550.181539807524" height="347.4502405949256" style="stroke-width: 0px; fill: rgb(255, 255, 255); fill-opacity: 1;"/><g class="layer-subplot"><g class="shapelayer"/><g class="imagelayer"/></g><g class="gridlayer" transform="translate(45.881452318460184,23.740157480314956)"><path class="xgrid crisp" d="M0,0v347.4502405949256" transform="translate(8.28,0)" style="stroke: rgb(238, 238, 238); stroke-opacity: 1; stroke-width: 1px;"/><path class="xgrid crisp" d="M0,0v347.4502405949256" transform="translate(173.75,0)" style="stroke: rgb(238, 238, 238); stroke-opacity: 1; stroke-width: 1px;"/><path class="xgrid crisp" d="M0,0v347.4502405949256" transform="translate(339.22,0)" style="stroke: rgb(238, 238, 238); stroke-opacity: 1; stroke-width: 1px;"/><path class="xgrid crisp" d="M0,0v347.4502405949256" transform="translate(504.68,0)" style="stroke: rgb(238, 238, 238); stroke-opacity: 1; stroke-width: 1px;"/><path class="ygrid crisp" d="M0,0h550.181539807524" transform="translate(0,299.91)" style="stroke: rgb(238, 238, 238); stroke-opacity: 1; stroke-width: 1px;"/><path class="ygrid crisp" d="M0,0h550.181539807524" transform="translate(0,210.79)" style="stroke: rgb(238, 238, 238); stroke-opacity: 1; stroke-width: 1px;"/><path class="ygrid crisp" d="M0,0h550.181539807524" transform="translate(0,121.67)" style="stroke: rgb(238, 238, 238); stroke-opacity: 1; stroke-width: 1px;"/><path class="ygrid crisp" d="M0,0h550.181539807524" transform="translate(0,32.55)" style="stroke: rgb(238, 238, 238); stroke-opacity: 1; stroke-width: 1px;"/></g><g class="overgrid"/><g class="zerolinelayer" transform="translate(45.881452318460184,23.740157480314956)"/><g class="overzero"/><g class="plot" transform="translate(45.881452318460184, 23.740157480314956)" clip-path="url(#clip660f86xyplot)"><g class="imagelayer"/><g class="maplayer"/><g class="barlayer"/><g class="boxlayer"/><g class="scatterlayer"><g class="trace scatter tracef7112a" style="stroke-miterlimit: 2; opacity: 1;"><path class="js-line" d="M10.93,330.08L16.25,306.75L21.57,292.88L26.89,282.43L32.21,273.83L42.84,259.87L48.16,253.93L58.8,243.43L64.12,238.7L80.08,225.96L85.4,222.1L106.68,208L111.99,204.74L138.59,189.64L143.91,186.8L175.83,170.76L181.14,168.22L223.7,148.81L229.02,146.48L292.85,119.43L298.17,117.24L510.94,28.99L516.26,26.68L537.53,17.37" style="vector-effect: non-scaling-stroke; fill: none; stroke: rgb(0, 154, 250); stroke-opacity: 1; stroke-width: 1px; opacity: 1;"/><g class="points"/></g><g class="trace scatter trace5362ff" style="stroke-miterlimit: 2; opacity: 1;"><g class="points"><path class="point" d="M2,0A2,2 0 1,1 0,-2A2,2 0 0,1 2,0Z" transform="translate(58.8,243.43)" style="opacity: 1; stroke-width: 1px; fill: rgb(227, 111, 71); fill-opacity: 1; stroke: rgb(0, 0, 0); stroke-opacity: 1;"/></g></g><g class="trace scatter traceaaf820" style="stroke-miterlimit: 2; opacity: 1;"><path class="js-line" d="M0,325.24L117.61,161.62" style="vector-effect: non-scaling-stroke; fill: none; stroke: rgb(62, 164, 78); stroke-opacity: 1; stroke-width: 1px; opacity: 1;"/><g class="points"/></g><g class="trace scatter tracea08ded" style="stroke-miterlimit: 2; opacity: 1;"><g class="points"><path class="point" d="M2,0A2,2 0 1,1 0,-2A2,2 0 0,1 2,0Z" transform="translate(165.19,175.95)" style="opacity: 1; stroke-width: 1px; fill: rgb(195, 113, 210); fill-opacity: 1; stroke: rgb(0, 0, 0); stroke-opacity: 1;"/></g></g><g class="trace scatter trace6833b4" style="stroke-miterlimit: 2; opacity: 1;"><path class="js-line" d="M100.65,215.49L229.72,136.41" style="vector-effect: non-scaling-stroke; fill: none; stroke: rgb(172, 142, 24); stroke-opacity: 1; stroke-width: 1px; opacity: 1;"/><g class="points"/></g><g class="trace scatter trace6475b7" style="stroke-miterlimit: 2; opacity: 1;"><g class="points"><path class="point" d="M2,0A2,2 0 1,1 0,-2A2,2 0 0,1 2,0Z" transform="translate(271.57,128.29)" style="opacity: 1; stroke-width: 1px; fill: rgb(0, 170, 174); fill-opacity: 1; stroke: rgb(0, 0, 0); stroke-opacity: 1;"/></g></g><g class="trace scatter traceeb024d" style="stroke-miterlimit: 2; opacity: 1;"><path class="js-line" d="M206.18,155.78L336.97,100.8" style="vector-effect: non-scaling-stroke; fill: none; stroke: rgb(237, 94, 147); stroke-opacity: 1; stroke-width: 1px; opacity: 1;"/><g class="points"/></g><g class="trace scatter trace0fb20e" style="stroke-miterlimit: 2; opacity: 1;"><g class="points"><path class="point" d="M2,0A2,2 0 1,1 0,-2A2,2 0 0,1 2,0Z" transform="translate(377.96,84.59)" style="opacity: 1; stroke-width: 1px; fill: rgb(198, 130, 37); fill-opacity: 1; stroke: rgb(0, 0, 0); stroke-opacity: 1;"/></g></g><g class="trace scatter trace0845d9" style="stroke-miterlimit: 2; opacity: 1;"><path class="js-line" d="M312.26,106.23L443.65,62.95" style="vector-effect: non-scaling-stroke; fill: none; stroke: rgb(0, 169, 141); stroke-opacity: 1; stroke-width: 1px; opacity: 1;"/><g class="points"/></g><g class="trace scatter trace19c58f" style="stroke-miterlimit: 2; opacity: 1;"><g class="points"><path class="point" d="M2,0A2,2 0 1,1 0,-2A2,2 0 0,1 2,0Z" transform="translate(484.34,40.4)" style="opacity: 1; stroke-width: 1px; fill: rgb(142, 151, 30); fill-opacity: 1; stroke: rgb(0, 0, 0); stroke-opacity: 1;"/></g></g><g class="trace scatter trace4c155f" style="stroke-miterlimit: 2; opacity: 1;"><path class="js-line" d="M418.5,58.58L550.18,22.21" style="vector-effect: non-scaling-stroke; fill: none; stroke: rgb(0, 169, 204); stroke-opacity: 1; stroke-width: 1px; opacity: 1;"/><g class="points"/></g></g></g><g class="overplot"/><path class="xlines crisp" transform="translate(45.881452318460184,23.740157480314956)" d="M-1,347.9502405949256h552.181539807524" style="fill: none; stroke-width: 1px; stroke: rgb(0, 0, 0); stroke-opacity: 1;"/><path class="ylines crisp" transform="translate(45.881452318460184,23.740157480314956)" d="M-0.5,-1v348.4502405949256" stroke-width="1px" style="fill: none; stroke: rgb(0, 0, 0); stroke-opacity: 1;"/><g class="overlines"/><g class="xaxislayer" transform="translate(45.881452318460184,23.740157480314956)"><path class="xtick ticks crisp" d="M0,347.4502405949256v-5" transform="translate(8.28,0)" style="stroke: rgb(0, 0, 0); stroke-opacity: 1; stroke-width: 1px;"/><path class="xtick ticks crisp" d="M0,347.4502405949256v-5" transform="translate(173.75,0)" style="stroke: rgb(0, 0, 0); stroke-opacity: 1; stroke-width: 1px;"/><path class="xtick ticks crisp" d="M0,347.4502405949256v-5" transform="translate(339.22,0)" style="stroke: rgb(0, 0, 0); stroke-opacity: 1; stroke-width: 1px;"/><path class="xtick ticks crisp" d="M0,347.4502405949256v-5" transform="translate(504.68,0)" style="stroke: rgb(0, 0, 0); stroke-opacity: 1; stroke-width: 1px;"/><g class="xtick"><text text-anchor="middle" x="0" y="361.4502405949256" transform="translate(8.28,0)" style="font-family: sans-serif; font-size: 11px; fill: rgb(0, 0, 0); fill-opacity: 1; visibility: visible; white-space: pre;">0</text></g><g class="xtick"><text text-anchor="middle" x="0" y="361.4502405949256" transform="translate(173.75,0)" style="font-family: sans-serif; font-size: 11px; fill: rgb(0, 0, 0); fill-opacity: 1; visibility: visible; white-space: pre;">5</text></g><g class="xtick"><text text-anchor="middle" x="0" y="361.4502405949256" transform="translate(339.22,0)" style="font-family: sans-serif; font-size: 11px; fill: rgb(0, 0, 0); fill-opacity: 1; visibility: visible; white-space: pre;">10</text></g><g class="xtick"><text text-anchor="middle" x="0" y="361.4502405949256" transform="translate(504.68,0)" style="font-family: sans-serif; font-size: 11px; fill: rgb(0, 0, 0); fill-opacity: 1; visibility: visible; white-space: pre;">15</text></g></g><g class="yaxislayer" transform="translate(45.881452318460184,23.740157480314956)"><path class="ytick ticks crisp" d="M0,0h5" transform="translate(0,299.91)" style="stroke: rgb(0, 0, 0); stroke-opacity: 1; stroke-width: 1px;"/><path class="ytick ticks crisp" d="M0,0h5" transform="translate(0,210.79)" style="stroke: rgb(0, 0, 0); stroke-opacity: 1; stroke-width: 1px;"/><path class="ytick ticks crisp" d="M0,0h5" transform="translate(0,121.67)" style="stroke: rgb(0, 0, 0); stroke-opacity: 1; stroke-width: 1px;"/><path class="ytick ticks crisp" d="M0,0h5" transform="translate(0,32.55)" style="stroke: rgb(0, 0, 0); stroke-opacity: 1; stroke-width: 1px;"/><g class="ytick"><text text-anchor="end" x="-3" y="5.5" transform="translate(0,299.91)" style="font-family: sans-serif; font-size: 11px; fill: rgb(0, 0, 0); fill-opacity: 1; visibility: visible; white-space: pre;">0.5</text></g><g class="ytick"><text text-anchor="end" x="-3" y="5.5" transform="translate(0,210.79)" style="font-family: sans-serif; font-size: 11px; fill: rgb(0, 0, 0); fill-opacity: 1; visibility: visible; white-space: pre;">1.0</text></g><g class="ytick"><text text-anchor="end" x="-3" y="5.5" transform="translate(0,121.67)" style="font-family: sans-serif; font-size: 11px; fill: rgb(0, 0, 0); fill-opacity: 1; visibility: visible; white-space: pre;">1.5</text></g><g class="ytick"><text text-anchor="end" x="-3" y="5.5" transform="translate(0,32.55)" style="font-family: sans-serif; font-size: 11px; fill: rgb(0, 0, 0); fill-opacity: 1; visibility: visible; white-space: pre;">2.0</text></g></g><g class="overaxes"/></g></g><g class="ternarylayer"/><g class="layer-above"><g class="imagelayer"/><g class="shapelayer"/></g><g class="pielayer"/><g class="glimages"/><g class="geoimages"/><text class="js-plot-link-container" y="391" text-anchor="end" x="593" style="font-family: 'Open Sans', Arial, sans-serif; font-size: 12px; fill: rgb(68, 68, 68); pointer-events: all; visibility: visible;"><tspan class="js-link-to-tool"/><tspan class="js-link-spacer"/><tspan class="js-sourcelinks"/></text><g class="infolayer"><g class="g-gtitle"/><g class="g-xtitle" data-bb="114" transform="translate(0,-29.6875)"><text class="xtitle" x="320.9722222222222" y="426.1903980752406" text-anchor="middle" style="font-family: sans-serif; font-size: 15px; fill: rgb(0, 0, 0); opacity: 1; font-weight: normal; white-space: pre; visibility: visible;">k</text></g><g class="g-ytitle" data-bb="115" transform="translate(7.130859375,0)"><text class="ytitle" transform="rotate(-90,5.881452318460184,197.46527777777777) translate(0, 0)" x="5.881452318460184" y="197.46527777777777" text-anchor="middle" style="font-family: sans-serif; font-size: 15px; fill: rgb(0, 0, 0); opacity: 1; font-weight: normal; white-space: pre; visibility: visible;">c(k)</text></g></g></svg>