<svg class="main-svg" xmlns="http://www.w3.org/2000/svg" xmlns:xlink="http://www.w3.org/1999/xlink" width="600" height="400"><rect x="0" y="0" width="600" height="400" style="fill: rgb(255, 255, 255); fill-opacity: 1;"/><defs id="defs-b7507e"><g class="clips"><clipPath class="axesclip" id="clipb7507ex"><rect x="45.881452318460184" y="0" width="550.181539807524" height="400"/></clipPath><clipPath class="axesclip" id="clipb7507ey"><rect x="0" y="23.740157480314956" width="600" height="347.4502405949256"/></clipPath><clipPath class="axesclip" id="clipb7507exy"><rect x="45.881452318460184" y="23.740157480314956" width="550.181539807524" height="347.4502405949256"/></clipPath><clipPath class="plotclip" id="clipb7507exyplot"><rect width="550.181539807524" height="347.4502405949256"/></clipPath></g></defs><g class="bglayer"><rect class="bg" x="45.881452318460184" y="23.740157480314956" width="550.181539807524" height="347.4502405949256" style="fill: rgb(255, 255, 255); fill-opacity: 1; stroke-width: 0px;"/></g><g class="layer-below"><g class="imagelayer"/><g class="shapelayer"/></g><g class="cartesianlayer"><g class="subplot xy"><g class="layer-subplot"><g class="shapelayer"/><g class="imagelayer"/></g><g class="gridlayer" transform="translate(45.881452318460184,23.740157480314956)"><path class="xgrid crisp" d="M0,0v347.4502405949256" transform="translate(129.99,0)" style="stroke: rgb(238, 238, 238); stroke-opacity: 1; stroke-width: 1px;"/><path class="xgrid crisp" d="M0,0v347.4502405949256" transform="translate(321.11,0)" style="stroke: rgb(238, 238, 238); stroke-opacity: 1; stroke-width: 1px;"/><path class="xgrid crisp" d="M0,0v347.4502405949256" transform="translate(512.24,0)" style="stroke: rgb(238, 238, 238); stroke-opacity: 1; stroke-width: 1px;"/><path class="ygrid crisp" d="M0,0h550.181539807524" transform="translate(0,274.74)" style="stroke: rgb(238, 238, 238); stroke-opacity: 1; stroke-width: 1px;"/><path class="ygrid crisp" d="M0,0h550.181539807524" transform="translate(0,156.16)" style="stroke: rgb(238, 238, 238); stroke-opacity: 1; stroke-width: 1px;"/><path class="ygrid crisp" d="M0,0h550.181539807524" transform="translate(0,37.57)" style="stroke: rgb(238, 238, 238); stroke-opacity: 1; stroke-width: 1px;"/></g><g class="overgrid"/><g class="zerolinelayer" transform="translate(45.881452318460184,23.740157480314956)"/><g class="overzero"/><g class="plot" transform="translate(45.881452318460184, 23.740157480314956)" clip-path="url(#clipb7507exyplot)"><g class="imagelayer"/><g class="maplayer"/><g class="barlayer"/><g class="carpetlayer"/><g class="boxlayer"/><g class="scatterlayer"><g class="trace scatter traced326c9" style="stroke-miterlimit: 2; opacity: 1;"><path class="js-line" d="M0,330.08L16.67,312.33L22.23,306.89L44.46,286.93L50.02,282.32L72.25,265L77.8,260.91L105.59,241.67L111.15,238.02L144.49,217.34L150.05,214.07L188.95,192.37L194.51,189.42L233.41,169.65L238.97,166.94L288.98,143.56L294.54,141.07L350.12,117.1L355.67,114.8L416.8,90.4L422.36,88.27L489.05,63.51L494.61,61.51L550.18,42.06" style="vector-effect: non-scaling-stroke; fill: none; stroke: rgb(0, 0, 0); stroke-opacity: 1; stroke-width: 1px; opacity: 1;"/><g class="points"/></g><g class="trace scatter trace21d10b" style="stroke-miterlimit: 2; opacity: 1;"><path class="js-line" d="M0,315.27L16.67,299.39L22.23,294.56L44.46,276.9L50.02,272.82L72.25,257.51L77.8,253.9L105.59,236.79L111.15,233.53L150.05,211.86L155.61,208.89L205.62,183.26L211.18,180.5L283.43,145.64L288.98,143L483.49,50.58L489.05,47.86L550.18,17.37" style="vector-effect: non-scaling-stroke; fill: none; stroke: rgb(0, 0, 0); stroke-opacity: 1; stroke-width: 1px; opacity: 1; stroke-dasharray: 9px, 9px;"/><g class="points"/></g><g class="trace scatter trace4b6580" style="stroke-miterlimit: 2; opacity: 1;"><g class="points"><path class="point" d="M4,0A4,4 0 1,1 0,-4A4,4 0 0,1 4,0Z" transform="translate(244.53,164.22)" style="opacity: 1; stroke-width: 1px; fill: rgb(62, 164, 78); fill-opacity: 1; stroke: rgb(0, 0, 0); stroke-opacity: 1;"/></g></g></g></g><g class="overplot"/><path class="xlines crisp" transform="translate(45.881452318460184,23.740157480314956)" d="M-1,347.9502405949256h552.181539807524" style="fill: none; stroke-width: 1px; stroke: rgb(0, 0, 0); stroke-opacity: 1;"/><path class="ylines crisp" transform="translate(45.881452318460184,23.740157480314956)" d="M-0.5,-1v348.4502405949256" stroke-width="1px" style="fill: none; stroke: rgb(0, 0, 0); stroke-opacity: 1;"/><g class="overlines"/><g class="xaxislayer" transform="translate(45.881452318460184,23.740157480314956)"><path class="xtick ticks crisp" d="M0,347.4502405949256v-5" transform="translate(129.99,0)" style="stroke: rgb(0, 0, 0); stroke-opacity: 1; stroke-width: 1px;"/><path class="xtick ticks crisp" d="M0,347.4502405949256v-5" transform="translate(321.11,0)" style="stroke: rgb(0, 0, 0); stroke-opacity: 1; stroke-width: 1px;"/><path class="xtick ticks crisp" d="M0,347.4502405949256v-5" transform="translate(512.24,0)" style="stroke: rgb(0, 0, 0); stroke-opacity: 1; stroke-width: 1px;"/><g class="xtick"><text text-anchor="middle" x="0" y="361.4502405949256" transform="translate(129.99,0)" style="font-family: sans-serif; font-size: 11px; fill: rgb(0, 0, 0); fill-opacity: 1; visibility: visible; white-space: pre;">5</text></g><g class="xtick"><text text-anchor="middle" x="0" y="361.4502405949256" transform="translate(321.11,0)" style="font-family: sans-serif; font-size: 11px; fill: rgb(0, 0, 0); fill-opacity: 1; visibility: visible; white-space: pre;">10</text></g><g class="xtick"><text text-anchor="middle" x="0" y="361.4502405949256" transform="translate(512.24,0)" style="font-family: sans-serif; font-size: 11px; fill: rgb(0, 0, 0); fill-opacity: 1; visibility: visible; white-space: pre;">15</text></g></g><g class="yaxislayer" transform="translate(45.881452318460184,23.740157480314956)"><path class="ytick ticks crisp" d="M0,0h5" transform="translate(0,274.74)" style="stroke: rgb(0, 0, 0); stroke-opacity: 1; stroke-width: 1px;"/><path class="ytick ticks crisp" d="M0,0h5" transform="translate(0,156.16)" style="stroke: rgb(0, 0, 0); stroke-opacity: 1; stroke-width: 1px;"/><path class="ytick ticks crisp" d="M0,0h5" transform="translate(0,37.57)" style="stroke: rgb(0, 0, 0); stroke-opacity: 1; stroke-width: 1px;"/><g class="ytick"><text text-anchor="end" x="-3" y="5.5" transform="translate(0,274.74)" style="font-family: sans-serif; font-size: 11px; fill: rgb(0, 0, 0); fill-opacity: 1; visibility: visible; white-space: pre;">1.0</text></g><g class="ytick"><text text-anchor="end" x="-3" y="5.5" transform="translate(0,156.16)" style="font-family: sans-serif; font-size: 11px; fill: rgb(0, 0, 0); fill-opacity: 1; visibility: visible; white-space: pre;">1.5</text></g><g class="ytick"><text text-anchor="end" x="-3" y="5.5" transform="translate(0,37.57)" style="font-family: sans-serif; font-size: 11px; fill: rgb(0, 0, 0); fill-opacity: 1; visibility: visible; white-space: pre;">2.0</text></g></g><g class="overaxes"/></g></g><g class="ternarylayer"/><g class="geolayer"/><g class="layer-above"><g class="imagelayer"/><g class="shapelayer"/></g><g class="pielayer"/><g class="glimages"/><g class="infolayer"><g class="g-gtitle"/><g class="g-xtitle" data-bb="430" transform="translate(0,-29.6875)"><text class="xtitle" x="320.9722222222222" y="426.1903980752406" text-anchor="middle" style="font-family: sans-serif; font-size: 15px; fill: rgb(0, 0, 0); opacity: 1; font-weight: normal; white-space: pre; visibility: visible;">k</text></g><g class="g-ytitle" data-bb="431" transform="translate(7.130859375,0)"><text class="ytitle" transform="rotate(-90,5.881452318460184,197.46527777777777) translate(0, 0)" x="5.881452318460184" y="197.46527777777777" text-anchor="middle" style="font-family: sans-serif; font-size: 15px; fill: rgb(0, 0, 0); opacity: 1; font-weight: normal; white-space: pre; visibility: visible;">c(k)</text></g></g></svg>