<svg class="main-svg" xmlns="http://www.w3.org/2000/svg" xmlns:xlink="http://www.w3.org/1999/xlink" width="600" height="400"><rect x="0" y="0" width="600" height="400" style="fill: rgb(255, 255, 255); fill-opacity: 1;"/><defs id="defs-d8e9c6"><g class="clips"><clipPath class="axesclip" id="clipd8e9c6x"><rect x="45.881452318460184" y="0" width="550.181539807524" height="400"/></clipPath><clipPath class="axesclip" id="clipd8e9c6y"><rect x="0" y="23.740157480314956" width="600" height="347.4502405949256"/></clipPath><clipPath class="axesclip" id="clipd8e9c6xy"><rect x="45.881452318460184" y="23.740157480314956" width="550.181539807524" height="347.4502405949256"/></clipPath><clipPath class="plotclip" id="clipd8e9c6xyplot"><rect width="550.181539807524" height="347.4502405949256"/></clipPath></g></defs><g class="layer-below"><g class="imagelayer"/><g class="shapelayer"/></g><g class="cartesianlayer"><g class="subplot xy"><rect class="bg" x="45.881452318460184" y="23.740157480314956" width="550.181539807524" height="347.4502405949256" style="stroke-width: 0px; fill: rgb(255, 255, 255); fill-opacity: 1;"/><g class="layer-subplot"><g class="shapelayer"/><g class="imagelayer"/></g><g class="gridlayer" transform="translate(45.881452318460184,23.740157480314956)"><path class="xgrid crisp" d="M0,0v347.4502405949256" transform="translate(129.99,0)" style="stroke: rgb(238, 238, 238); stroke-opacity: 1; stroke-width: 1px;"/><path class="xgrid crisp" d="M0,0v347.4502405949256" transform="translate(321.11,0)" style="stroke: rgb(238, 238, 238); stroke-opacity: 1; stroke-width: 1px;"/><path class="xgrid crisp" d="M0,0v347.4502405949256" transform="translate(512.24,0)" style="stroke: rgb(238, 238, 238); stroke-opacity: 1; stroke-width: 1px;"/><path class="ygrid crisp" d="M0,0h550.181539807524" transform="translate(0,249.21)" style="stroke: rgb(238, 238, 238); stroke-opacity: 1; stroke-width: 1px;"/><path class="ygrid crisp" d="M0,0h550.181539807524" transform="translate(0,94.48)" style="stroke: rgb(238, 238, 238); stroke-opacity: 1; stroke-width: 1px;"/></g><g class="overgrid"/><g class="zerolinelayer" transform="translate(45.881452318460184,23.740157480314956)"/><g class="overzero"/><g class="plot" transform="translate(45.881452318460184, 23.740157480314956)" clip-path="url(#clipd8e9c6xyplot)"><g class="imagelayer"/><g class="maplayer"/><g class="barlayer"/><g class="boxlayer"/><g class="scatterlayer"><g class="trace scatter tracec6e58f" style="stroke-miterlimit: 2; opacity: 1;"><path class="js-line" d="M0,120.23L11.11,144.58L16.67,154.97L27.79,172.82L33.34,180.5L44.46,193.84L50.02,199.66L61.13,209.92L66.69,214.46L83.36,226.29L88.92,229.75L105.59,239.01L111.15,241.8L133.38,251.76L138.93,254L166.72,264.02L172.28,265.81L200.07,273.83L205.62,275.26L238.97,282.8L244.53,283.91L283.43,290.73L288.98,291.6L344.56,299.41L350.12,300.13L416.8,307.79L422.36,308.35L489.05,314.13L494.61,314.56L550.18,318.63" style="vector-effect: non-scaling-stroke; fill: none; stroke: rgb(0, 0, 0); stroke-opacity: 1; stroke-width: 1px; opacity: 1;"/><g class="points"/></g><g class="trace scatter traceaef861" style="stroke-miterlimit: 2; opacity: 1;"><path class="js-line" d="M0,17.37L11.11,61.13L16.67,78.96L27.79,108.81L33.34,121.46L44.46,143.3L50.02,152.81L61.13,169.58L66.69,177.02L77.8,190.36L83.36,196.36L100.03,212.22L105.59,216.89L122.26,229.44L127.82,233.19L144.49,243.4L150.05,246.49L172.28,257.56L177.84,260.05L200.07,269.07L205.62,271.12L233.41,280.34L238.97,282.01L272.31,290.96L277.87,292.3L316.77,300.69L322.33,301.76L366.79,309.45L372.35,310.31L422.36,317.23L427.92,317.92L489.05,324.63L494.61,325.18L550.18,330.08" style="vector-effect: non-scaling-stroke; fill: none; stroke: rgb(0, 0, 0); stroke-opacity: 1; stroke-width: 1px; opacity: 1; stroke-dasharray: 9px, 9px;"/><g class="points"/></g><g class="trace scatter traceb98a31" style="stroke-miterlimit: 2; opacity: 1;"><g class="points"><path class="point" d="M4,0A4,4 0 1,1 0,-4A4,4 0 0,1 4,0Z" transform="translate(244.53,283.91)" style="opacity: 1; stroke-width: 1px; fill: rgb(62, 164, 78); fill-opacity: 1; stroke: rgb(0, 0, 0); stroke-opacity: 1;"/></g></g></g></g><g class="overplot"/><path class="xlines crisp" transform="translate(45.881452318460184,23.740157480314956)" d="M-1,347.9502405949256h552.181539807524" style="fill: none; stroke-width: 1px; stroke: rgb(0, 0, 0); stroke-opacity: 1;"/><path class="ylines crisp" transform="translate(45.881452318460184,23.740157480314956)" d="M-0.5,-1v348.4502405949256" stroke-width="1px" style="fill: none; stroke: rgb(0, 0, 0); stroke-opacity: 1;"/><g class="overlines"/><g class="xaxislayer" transform="translate(45.881452318460184,23.740157480314956)"><path class="xtick ticks crisp" d="M0,347.4502405949256v-5" transform="translate(129.99,0)" style="stroke: rgb(0, 0, 0); stroke-opacity: 1; stroke-width: 1px;"/><path class="xtick ticks crisp" d="M0,347.4502405949256v-5" transform="translate(321.11,0)" style="stroke: rgb(0, 0, 0); stroke-opacity: 1; stroke-width: 1px;"/><path class="xtick ticks crisp" d="M0,347.4502405949256v-5" transform="translate(512.24,0)" style="stroke: rgb(0, 0, 0); stroke-opacity: 1; stroke-width: 1px;"/><g class="xtick"><text text-anchor="middle" x="0" y="361.4502405949256" transform="translate(129.99,0)" style="font-family: sans-serif; font-size: 11px; fill: rgb(0, 0, 0); fill-opacity: 1; visibility: visible; white-space: pre;">5</text></g><g class="xtick"><text text-anchor="middle" x="0" y="361.4502405949256" transform="translate(321.11,0)" style="font-family: sans-serif; font-size: 11px; fill: rgb(0, 0, 0); fill-opacity: 1; visibility: visible; white-space: pre;">10</text></g><g class="xtick"><text text-anchor="middle" x="0" y="361.4502405949256" transform="translate(512.24,0)" style="font-family: sans-serif; font-size: 11px; fill: rgb(0, 0, 0); fill-opacity: 1; visibility: visible; white-space: pre;">15</text></g></g><g class="yaxislayer" transform="translate(45.881452318460184,23.740157480314956)"><path class="ytick ticks crisp" d="M0,0h5" transform="translate(0,249.21)" style="stroke: rgb(0, 0, 0); stroke-opacity: 1; stroke-width: 1px;"/><path class="ytick ticks crisp" d="M0,0h5" transform="translate(0,94.48)" style="stroke: rgb(0, 0, 0); stroke-opacity: 1; stroke-width: 1px;"/><g class="ytick"><text text-anchor="end" x="-3" y="5.5" transform="translate(0,249.21)" style="font-family: sans-serif; font-size: 11px; fill: rgb(0, 0, 0); fill-opacity: 1; visibility: visible; white-space: pre;">0.1</text></g><g class="ytick"><text text-anchor="end" x="-3" y="5.5" transform="translate(0,94.48)" style="font-family: sans-serif; font-size: 11px; fill: rgb(0, 0, 0); fill-opacity: 1; visibility: visible; white-space: pre;">0.2</text></g></g><g class="overaxes"/></g></g><g class="ternarylayer"/><g class="layer-above"><g class="imagelayer"/><g class="shapelayer"/></g><g class="pielayer"/><g class="glimages"/><g class="geoimages"/><text class="js-plot-link-container" y="391" text-anchor="end" x="593" style="font-family: 'Open Sans', Arial, sans-serif; font-size: 12px; fill: rgb(68, 68, 68); pointer-events: all; visibility: visible;"><tspan class="js-link-to-tool"/><tspan class="js-link-spacer"/><tspan class="js-sourcelinks"/></text><g class="infolayer"><g class="g-gtitle"/><g class="g-xtitle" data-bb="1446" transform="translate(0,-29.1875)"><text class="xtitle" x="320.9722222222222" y="426.1903980752406" text-anchor="middle" style="font-family: sans-serif; font-size: 15px; fill: rgb(0, 0, 0); opacity: 1; font-weight: normal; white-space: pre; visibility: visible;">k</text></g><g class="g-ytitle" data-bb="1447" transform="translate(8.130859375,0)"><text class="ytitle" transform="rotate(-90,5.881452318460184,197.46527777777777) translate(0, 0)" x="5.881452318460184" y="197.46527777777777" text-anchor="middle" style="font-family: sans-serif; font-size: 15px; fill: rgb(0, 0, 0); opacity: 1; font-weight: normal; white-space: pre; visibility: visible;">c′(k)</text></g></g></svg>