<svg class="main-svg" xmlns="http://www.w3.org/2000/svg" xmlns:xlink="http://www.w3.org/1999/xlink" width="600" height="400"><rect x="0" y="0" width="600" height="400" style="fill: rgb(255, 255, 255); fill-opacity: 1;"/><defs id="defs-aad9a3"><g class="clips"><clipPath class="axesclip" id="clipaad9a3x"><rect x="63.65923009623796" y="0" width="532.4037620297462" height="400"/></clipPath><clipPath class="axesclip" id="clipaad9a3y"><rect x="0" y="23.740157480314956" width="600" height="347.4502405949256"/></clipPath><clipPath class="axesclip" id="clipaad9a3xy"><rect x="63.65923009623796" y="23.740157480314956" width="532.4037620297462" height="347.4502405949256"/></clipPath><clipPath class="plotclip" id="clipaad9a3xyplot"><rect width="532.4037620297462" height="347.4502405949256"/></clipPath></g></defs><g class="bglayer"><rect class="bg" x="63.65923009623796" y="23.740157480314956" width="532.4037620297462" height="347.4502405949256" style="fill: rgb(255, 255, 255); fill-opacity: 1; stroke-width: 0px;"/></g><g class="layer-below"><g class="imagelayer"/><g class="shapelayer"/></g><g class="cartesianlayer"><g class="subplot xy"><g class="layer-subplot"><g class="shapelayer"/><g class="imagelayer"/></g><g class="gridlayer" transform="translate(63.65923009623796,23.740157480314956)"><path class="xgrid crisp" d="M0,0v347.4502405949256" transform="translate(122.9,0)" style="stroke: rgb(238, 238, 238); stroke-opacity: 1; stroke-width: 1px;"/><path class="xgrid crisp" d="M0,0v347.4502405949256" transform="translate(311.66,0)" style="stroke: rgb(238, 238, 238); stroke-opacity: 1; stroke-width: 1px;"/><path class="xgrid crisp" d="M0,0v347.4502405949256" transform="translate(500.42,0)" style="stroke: rgb(238, 238, 238); stroke-opacity: 1; stroke-width: 1px;"/><path class="ygrid crisp" d="M0,0h532.4037620297462" transform="translate(0,302.22)" style="stroke: rgb(238, 238, 238); stroke-opacity: 1; stroke-width: 1px;"/><path class="ygrid crisp" d="M0,0h532.4037620297462" transform="translate(0,162.3)" style="stroke: rgb(238, 238, 238); stroke-opacity: 1; stroke-width: 1px;"/><path class="ygrid crisp" d="M0,0h532.4037620297462" transform="translate(0,22.37)" style="stroke: rgb(238, 238, 238); stroke-opacity: 1; stroke-width: 1px;"/></g><g class="overgrid"/><g class="zerolinelayer" transform="translate(63.65923009623796,23.740157480314956)"/><g class="overzero"/><g class="plot" transform="translate(63.65923009623796, 23.740157480314956)" clip-path="url(#clipaad9a3xyplot)"><g class="imagelayer"/><g class="maplayer"/><g class="barlayer"/><g class="carpetlayer"/><g class="boxlayer"/><g class="scatterlayer"><g class="trace scatter trace8fe4a5" style="stroke-miterlimit: 2; opacity: 1;"><path class="js-line" d="M0,330.08L10.98,272.76L16.47,249.23L27.44,209.7L32.93,192.96L43.91,164.18L49.4,151.74L60.38,130.02L65.86,120.51L76.84,103.74L82.33,96.33L93.31,83.19L98.8,77.37L109.77,67.01L115.26,62.41L126.24,54.24L131.73,50.63L148.19,41.44L153.68,38.87L170.15,32.48L175.64,30.75L192.1,26.63L197.59,25.6L214.06,23.39L219.55,22.94L236.01,22.37L241.5,22.43L263.46,23.83L268.95,24.45L290.9,27.96L296.39,29.08L318.34,34.49L323.83,36.06L345.79,43.21L351.28,45.21L373.23,53.99L378.72,56.38L406.16,69.46L411.65,72.3L439.1,87.57L444.58,90.84L472.03,108.23L477.52,111.91L504.96,131.34L510.45,135.43L532.4,152.43" style="vector-effect: non-scaling-stroke; fill: none; stroke: rgb(0, 0, 0); stroke-opacity: 1; stroke-width: 1px; opacity: 1;"/><g class="points"/></g><g class="trace scatter trace7d9177" style="stroke-miterlimit: 2; opacity: 1;"><g class="points"><path class="point" d="M4,0A4,4 0 1,1 0,-4A4,4 0 0,1 4,0Z" transform="translate(236.01,22.37)" style="opacity: 1; stroke-width: 1px; fill: rgb(227, 111, 71); fill-opacity: 1; stroke: rgb(0, 0, 0); stroke-opacity: 1;"/></g></g></g></g><g class="overplot"/><path class="xlines crisp" transform="translate(63.65923009623796,23.740157480314956)" d="M-1,347.9502405949256h534.4037620297462" style="fill: none; stroke-width: 1px; stroke: rgb(0, 0, 0); stroke-opacity: 1;"/><path class="ylines crisp" transform="translate(63.65923009623796,23.740157480314956)" d="M-0.5,-1v348.4502405949256" stroke-width="1px" style="fill: none; stroke: rgb(0, 0, 0); stroke-opacity: 1;"/><g class="overlines"/><g class="xaxislayer" transform="translate(63.65923009623796,23.740157480314956)"><path class="xtick ticks crisp" d="M0,347.4502405949256v-5" transform="translate(122.9,0)" style="stroke: rgb(0, 0, 0); stroke-opacity: 1; stroke-width: 1px;"/><path class="xtick ticks crisp" d="M0,347.4502405949256v-5" transform="translate(311.66,0)" style="stroke: rgb(0, 0, 0); stroke-opacity: 1; stroke-width: 1px;"/><path class="xtick ticks crisp" d="M0,347.4502405949256v-5" transform="translate(500.42,0)" style="stroke: rgb(0, 0, 0); stroke-opacity: 1; stroke-width: 1px;"/><g class="xtick"><text text-anchor="middle" x="0" y="361.4502405949256" transform="translate(122.9,0)" style="font-family: sans-serif; font-size: 11px; fill: rgb(0, 0, 0); fill-opacity: 1; visibility: visible; white-space: pre;">5</text></g><g class="xtick"><text text-anchor="middle" x="0" y="361.4502405949256" transform="translate(311.66,0)" style="font-family: sans-serif; font-size: 11px; fill: rgb(0, 0, 0); fill-opacity: 1; visibility: visible; white-space: pre;">10</text></g><g class="xtick"><text text-anchor="middle" x="0" y="361.4502405949256" transform="translate(500.42,0)" style="font-family: sans-serif; font-size: 11px; fill: rgb(0, 0, 0); fill-opacity: 1; visibility: visible; white-space: pre;">15</text></g></g><g class="yaxislayer" transform="translate(63.65923009623796,23.740157480314956)"><path class="ytick ticks crisp" d="M0,0h5" transform="translate(0,302.22)" style="stroke: rgb(0, 0, 0); stroke-opacity: 1; stroke-width: 1px;"/><path class="ytick ticks crisp" d="M0,0h5" transform="translate(0,162.3)" style="stroke: rgb(0, 0, 0); stroke-opacity: 1; stroke-width: 1px;"/><path class="ytick ticks crisp" d="M0,0h5" transform="translate(0,22.37)" style="stroke: rgb(0, 0, 0); stroke-opacity: 1; stroke-width: 1px;"/><g class="ytick" data-bb="685"><text text-anchor="end" x="-3" y="5.5" transform="translate(0,302.22)" style="font-family: sans-serif; font-size: 11px; fill: rgb(0, 0, 0); fill-opacity: 1; visibility: visible; white-space: pre;">-0.02</text></g><g class="ytick" data-bb="686"><text text-anchor="end" x="-3" y="5.5" transform="translate(0,162.3)" style="font-family: sans-serif; font-size: 11px; fill: rgb(0, 0, 0); fill-opacity: 1; visibility: visible; white-space: pre;">-0.01</text></g><g class="ytick" data-bb="687"><text text-anchor="end" x="-3" y="5.5" transform="translate(0,22.37)" style="font-family: sans-serif; font-size: 11px; fill: rgb(0, 0, 0); fill-opacity: 1; visibility: visible; white-space: pre;">0.00</text></g></g><g class="overaxes"/></g></g><g class="ternarylayer"/><g class="geolayer"/><g class="layer-above"><g class="imagelayer"/><g class="shapelayer"/></g><g class="pielayer"/><g class="glimages"/><g class="infolayer"><g class="g-gtitle"/><g class="g-xtitle" data-bb="683" transform="translate(0,-29.6875)"><text class="xtitle" x="329.8611111111111" y="426.1903980752406" text-anchor="middle" style="font-family: sans-serif; font-size: 15px; fill: rgb(0, 0, 0); opacity: 1; font-weight: normal; white-space: pre; visibility: visible;">k</text></g><g class="g-ytitle" data-bb="684"><text class="ytitle" transform="rotate(-90,23.659230096237962,197.46527777777777) translate(0, 0)" x="23.659230096237962" y="197.46527777777777" text-anchor="middle" style="font-family: sans-serif; font-size: 15px; fill: rgb(0, 0, 0); opacity: 1; font-weight: normal; white-space: pre; visibility: visible;">Euler residual</text></g></g></svg>