<svg class="main-svg" xmlns="http://www.w3.org/2000/svg" xmlns:xlink="http://www.w3.org/1999/xlink" width="600" height="400"><rect x="0" y="0" width="600" height="400" style="fill: rgb(255, 255, 255); fill-opacity: 1;"/><defs id="defs-f8ac2c"><g class="clips"><clipPath class="axesclip" id="clipf8ac2cx"><rect x="45.36809930008748" y="0" width="448.3707458442695" height="400"/></clipPath><clipPath class="axesclip" id="clipf8ac2cy"><rect x="0" y="23.740157480314956" width="600" height="347.4502405949256"/></clipPath><clipPath class="axesclip" id="clipf8ac2cxy"><rect x="45.36809930008748" y="23.740157480314956" width="448.3707458442695" height="347.4502405949256"/></clipPath><clipPath class="plotclip" id="clipf8ac2cxyplot"><rect width="448.3707458442695" height="347.4502405949256"/></clipPath></g></defs><g class="layer-below"><g class="imagelayer"/><g class="shapelayer"/></g><g class="cartesianlayer"><g class="subplot xy"><rect class="bg" x="45.36809930008748" y="23.740157480314956" width="448.3707458442695" height="347.4502405949256" style="stroke-width: 0px; fill: rgb(255, 255, 255); fill-opacity: 1;"/><g class="layer-subplot"><g class="shapelayer"/><g class="imagelayer"/></g><g class="gridlayer" transform="translate(45.36809930008748,23.740157480314956)"><path class="xgrid crisp" d="M0,0v347.4502405949256" transform="translate(135.47,0)" style="stroke: rgb(238, 238, 238); stroke-opacity: 1; stroke-width: 1px;"/><path class="xgrid crisp" d="M0,0v347.4502405949256" transform="translate(277.79,0)" style="stroke: rgb(238, 238, 238); stroke-opacity: 1; stroke-width: 1px;"/><path class="xgrid crisp" d="M0,0v347.4502405949256" transform="translate(420.12,0)" style="stroke: rgb(238, 238, 238); stroke-opacity: 1; stroke-width: 1px;"/><path class="ygrid crisp" d="M0,0h448.3707458442695" transform="translate(0,260.74)" style="stroke: rgb(238, 238, 238); stroke-opacity: 1; stroke-width: 1px;"/><path class="ygrid crisp" d="M0,0h448.3707458442695" transform="translate(0,175.05)" style="stroke: rgb(238, 238, 238); stroke-opacity: 1; stroke-width: 1px;"/><path class="ygrid crisp" d="M0,0h448.3707458442695" transform="translate(0,89.35)" style="stroke: rgb(238, 238, 238); stroke-opacity: 1; stroke-width: 1px;"/></g><g class="overgrid"/><g class="zerolinelayer" transform="translate(45.36809930008748,23.740157480314956)"/><g class="overzero"/><g class="plot" transform="translate(45.36809930008748, 23.740157480314956)" clip-path="url(#clipf8ac2cxyplot)"><g class="imagelayer"/><g class="maplayer"/><g class="barlayer"/><g class="boxlayer"/><g class="scatterlayer"><g class="trace scatter tracecb5786" style="stroke-miterlimit: 2; opacity: 1;"><path class="js-line" d="M0,123.92L4.58,200.91L9.15,232.48L13.73,250.74L18.3,262.9L22.88,271.67L27.45,278.34L36.6,287.88L41.18,291.42L50.33,296.97L54.9,299.18L68.63,304.35L73.2,305.7L91.5,309.93L96.08,310.76L118.96,314L123.53,314.51L155.56,317.18L160.13,317.46L205.88,319.41L210.46,319.54L279.09,320.46L283.66,320.47L366.02,319.94L370.59,319.88L443.8,318.5" style="vector-effect: non-scaling-stroke; fill: none; stroke: rgb(0, 154, 250); stroke-opacity: 1; stroke-width: 1px; opacity: 1;"/><g class="points"/></g><g class="trace scatter trace67aa34" style="stroke-miterlimit: 2; opacity: 1;"><path class="js-line" d="M0,17.37L4.58,117.18L9.15,165.85L13.73,195.4L18.3,215.52L22.88,230.24L27.45,241.54L36.6,257.89L41.18,264.04L50.33,273.76L54.9,277.68L64.05,284.21L68.63,286.97L82.35,293.75L86.93,295.63L105.23,301.8L109.81,303.08L132.68,308.38L137.26,309.27L164.71,313.7L169.28,314.32L205.88,318.45L210.46,318.88L260.79,322.73L265.36,323.02L338.57,326.67L343.14,326.85L448.37,330.08" style="vector-effect: non-scaling-stroke; fill: none; stroke: rgb(227, 111, 71); stroke-opacity: 1; stroke-width: 1px; opacity: 1;"/><g class="points"/></g></g></g><g class="overplot"/><path class="xlines crisp" transform="translate(45.36809930008748,23.740157480314956)" d="M-1,347.9502405949256h450.3707458442695" style="fill: none; stroke-width: 1px; stroke: rgb(0, 0, 0); stroke-opacity: 1;"/><path class="ylines crisp" transform="translate(45.36809930008748,23.740157480314956)" d="M-0.5,-1v348.4502405949256" stroke-width="1px" style="fill: none; stroke: rgb(0, 0, 0); stroke-opacity: 1;"/><g class="overlines"/><g class="xaxislayer" transform="translate(45.36809930008748,23.740157480314956)"><path class="xtick ticks crisp" d="M0,347.4502405949256v-5" transform="translate(135.47,0)" style="stroke: rgb(0, 0, 0); stroke-opacity: 1; stroke-width: 1px;"/><path class="xtick ticks crisp" d="M0,347.4502405949256v-5" transform="translate(277.79,0)" style="stroke: rgb(0, 0, 0); stroke-opacity: 1; stroke-width: 1px;"/><path class="xtick ticks crisp" d="M0,347.4502405949256v-5" transform="translate(420.12,0)" style="stroke: rgb(0, 0, 0); stroke-opacity: 1; stroke-width: 1px;"/><g class="xtick"><text text-anchor="middle" x="0" y="361.4502405949256" transform="translate(135.47,0)" style="font-family: sans-serif; font-size: 11px; fill: rgb(0, 0, 0); fill-opacity: 1; visibility: visible; white-space: pre;">5</text></g><g class="xtick"><text text-anchor="middle" x="0" y="361.4502405949256" transform="translate(277.79,0)" style="font-family: sans-serif; font-size: 11px; fill: rgb(0, 0, 0); fill-opacity: 1; visibility: visible; white-space: pre;">10</text></g><g class="xtick"><text text-anchor="middle" x="0" y="361.4502405949256" transform="translate(420.12,0)" style="font-family: sans-serif; font-size: 11px; fill: rgb(0, 0, 0); fill-opacity: 1; visibility: visible; white-space: pre;">15</text></g></g><g class="yaxislayer" transform="translate(45.36809930008748,23.740157480314956)"><path class="ytick ticks crisp" d="M0,0h5" transform="translate(0,260.74)" style="stroke: rgb(0, 0, 0); stroke-opacity: 1; stroke-width: 1px;"/><path class="ytick ticks crisp" d="M0,0h5" transform="translate(0,175.05)" style="stroke: rgb(0, 0, 0); stroke-opacity: 1; stroke-width: 1px;"/><path class="ytick ticks crisp" d="M0,0h5" transform="translate(0,89.35)" style="stroke: rgb(0, 0, 0); stroke-opacity: 1; stroke-width: 1px;"/><g class="ytick"><text text-anchor="end" x="-3" y="5.5" transform="translate(0,260.74)" style="font-family: sans-serif; font-size: 11px; fill: rgb(0, 0, 0); fill-opacity: 1; visibility: visible; white-space: pre;">0.25</text></g><g class="ytick"><text text-anchor="end" x="-3" y="5.5" transform="translate(0,175.05)" style="font-family: sans-serif; font-size: 11px; fill: rgb(0, 0, 0); fill-opacity: 1; visibility: visible; white-space: pre;">0.50</text></g><g class="ytick"><text text-anchor="end" x="-3" y="5.5" transform="translate(0,89.35)" style="font-family: sans-serif; font-size: 11px; fill: rgb(0, 0, 0); fill-opacity: 1; visibility: visible; white-space: pre;">0.75</text></g></g><g class="overaxes"/></g></g><g class="ternarylayer"/><g class="layer-above"><g class="imagelayer"/><g class="shapelayer"/></g><g class="pielayer"/><g class="glimages"/><g class="geoimages"/><text class="js-plot-link-container" y="391" text-anchor="end" x="593" style="font-family: 'Open Sans', Arial, sans-serif; font-size: 12px; fill: rgb(68, 68, 68); pointer-events: all; visibility: visible;"><tspan class="js-link-to-tool"/><tspan class="js-link-spacer"/><tspan class="js-sourcelinks"/></text><defs id="topdefs-f8ac2c"><clipPath id="legendf8ac2c"><rect width="91" height="48" x="0" y="0"/></clipPath></defs><g class="infolayer"><g class="g-gtitle"/><g class="g-xtitle" data-bb="354" transform="translate(0,-29.6875)"><text class="xtitle" x="269.55347222222224" y="426.1903980752406" text-anchor="middle" style="font-family: sans-serif; font-size: 15px; fill: rgb(0, 0, 0); opacity: 1; font-weight: normal; white-space: pre; visibility: visible;">k</text></g><g class="g-ytitle" data-bb="355" transform="translate(7.64453125,0)"><text class="ytitle" transform="rotate(-90,5.368099300087479,197.46527777777777) translate(0, 0)" x="5.368099300087479" y="197.46527777777777" text-anchor="middle" style="font-family: sans-serif; font-size: 15px; fill: rgb(0, 0, 0); opacity: 1; font-weight: normal; white-space: pre; visibility: visible;">c′</text></g><g class="legend" pointer-events="all" transform="translate(497, 20)"><rect class="bg" shape-rendering="crispEdges" style="stroke: rgb(0, 0, 0); stroke-opacity: 1; fill: rgb(255, 255, 255); fill-opacity: 1; stroke-width: 0px;" width="91" height="48" x="0" y="0"/><g class="scrollbox" transform="translate(0, 0)" clip-path="url(#legendf8ac2c)"><g class="groups"><g class="traces" transform="translate(0, 14.5)" style="opacity: 1;"><g class="legendfill"/><g class="legendlines"><path class="js-line" d="M5,0h30" style="fill: none; stroke: rgb(0, 154, 250); stroke-opacity: 1; stroke-width: 1px;"/></g><g class="legendsymbols" style="opacity: 1;"><g class="legendpoints"/></g><text class="legendtext user-select-none" x="40" y="4.29" style="text-anchor: start; font-family: sans-serif; font-size: 11px; fill: rgb(0, 0, 0); fill-opacity: 1; white-space: pre; visibility: visible;" data-bb="356">c′ from c₀</text><rect class="legendtoggle" pointer-events="all" style="cursor: pointer; fill: rgb(0, 0, 0); fill-opacity: 0;" x="0" y="-9.5" width="131" height="19"/></g><g class="traces" transform="translate(0, 33.5)" style="opacity: 1;"><g class="legendfill"/><g class="legendlines"><path class="js-line" d="M5,0h30" style="fill: none; stroke: rgb(227, 111, 71); stroke-opacity: 1; stroke-width: 1px;"/></g><g class="legendsymbols" style="opacity: 1;"><g class="legendpoints"/></g><text class="legendtext user-select-none" x="40" y="4.29" style="text-anchor: start; font-family: sans-serif; font-size: 11px; fill: rgb(0, 0, 0); fill-opacity: 1; white-space: pre; visibility: visible;" data-bb="357">c₁</text><rect class="legendtoggle" pointer-events="all" x="0" y="-9.5" width="131" height="19" style="cursor: pointer; fill: rgb(0, 0, 0); fill-opacity: 0;"/></g></g></g><rect class="scrollbar" rx="20" ry="2" width="0" height="0" style="fill: rgb(128, 139, 164); fill-opacity: 1;"/></g></g></svg>