<svg class="main-svg" xmlns="http://www.w3.org/2000/svg" xmlns:xlink="http://www.w3.org/1999/xlink" width="600" height="400"><rect x="0" y="0" width="600" height="400" style="fill: rgb(255, 255, 255); fill-opacity: 1;"/><defs id="defs-ab9765"><g class="clips"><clipPath class="axesclip" id="clipab9765x"><rect x="81.43700787401575" y="0" width="514.6259842519685" height="400"/></clipPath><clipPath class="axesclip" id="clipab9765y"><rect x="0" y="23.740157480314956" width="600" height="347.4502405949256"/></clipPath><clipPath class="axesclip" id="clipab9765xy"><rect x="81.43700787401575" y="23.740157480314956" width="514.6259842519685" height="347.4502405949256"/></clipPath><clipPath class="plotclip" id="clipab9765xyplot"><rect width="514.6259842519685" height="347.4502405949256"/></clipPath></g></defs><g class="layer-below"><g class="imagelayer"/><g class="shapelayer"/></g><g class="cartesianlayer"><g class="subplot xy"><rect class="bg" x="81.43700787401575" y="23.740157480314956" width="514.6259842519685" height="347.4502405949256" style="stroke-width: 0px; fill: rgb(255, 255, 255); fill-opacity: 1;"/><g class="layer-subplot"><g class="shapelayer"/><g class="imagelayer"/></g><g class="gridlayer" transform="translate(81.43700787401575,23.740157480314956)"><path class="xgrid crisp" d="M0,0v347.4502405949256" transform="translate(136.31,0)" style="stroke: rgb(238, 238, 238); stroke-opacity: 1; stroke-width: 1px;"/><path class="xgrid crisp" d="M0,0v347.4502405949256" transform="translate(295.69,0)" style="stroke: rgb(238, 238, 238); stroke-opacity: 1; stroke-width: 1px;"/><path class="xgrid crisp" d="M0,0v347.4502405949256" transform="translate(455.08,0)" style="stroke: rgb(238, 238, 238); stroke-opacity: 1; stroke-width: 1px;"/><path class="ygrid crisp" d="M0,0h514.6259842519685" transform="translate(0,297.29)" style="stroke: rgb(238, 238, 238); stroke-opacity: 1; stroke-width: 1px;"/><path class="ygrid crisp" d="M0,0h514.6259842519685" transform="translate(0,153.3)" style="stroke: rgb(238, 238, 238); stroke-opacity: 1; stroke-width: 1px;"/><path class="ygrid crisp" d="M0,0h514.6259842519685" transform="translate(0,9.31)" style="stroke: rgb(238, 238, 238); stroke-opacity: 1; stroke-width: 1px;"/></g><g class="overgrid"/><g class="zerolinelayer" transform="translate(81.43700787401575,23.740157480314956)"/><g class="overzero"/><g class="plot" transform="translate(81.43700787401575, 23.740157480314956)" clip-path="url(#clipab9765xyplot)"><g class="imagelayer"/><g class="maplayer"/><g class="barlayer"/><g class="boxlayer"/><g class="scatterlayer"><g class="trace scatter tracefd0ee4" style="stroke-miterlimit: 2; opacity: 1;"><path class="js-line" d="M27.91,330.08L32.54,85.76L37.18,17.37L41.81,32.91L46.44,80.98L55.71,179.03L60.35,210.39L64.98,227.53L69.62,232.07L74.25,226.71L78.89,214.41L88.15,179.74L92.79,161.73L102.06,131.6L106.69,121.04L111.33,113.89L115.96,110.13L120.6,109.5L125.23,111.62L129.87,115.98L134.5,122.06L143.77,137.22L148.4,145.29L157.67,160.27L162.31,166.55L166.94,171.71L171.58,175.62L176.21,178.22L180.84,179.51L185.48,179.54L190.11,178.41L194.75,176.26L199.38,173.26L208.65,165.47L213.29,161.07L227.19,148.18L231.82,144.53L241.09,138.94L245.73,137.16L255,135.8L259.63,136.2L268.9,138.92L273.53,141.09L287.44,149.51L292.07,152.56L305.97,160.75L310.61,162.81L319.88,165.47L324.51,165.97L333.78,165.27L338.42,164.13L347.69,160.52L352.32,158.23L375.49,146.48L380.13,144.91L389.4,143.33L394.03,143.43L403.3,145.45L407.93,147.26L421.84,154.59L426.47,157.07L435.74,160.83L440.37,161.68L445.01,161.6L449.64,160.5L454.28,158.38L458.91,155.39L468.18,148.46L472.82,146.05L477.45,145.98L482.08,150.07L486.72,160.73" style="vector-effect: non-scaling-stroke; fill: none; stroke: rgb(0, 0, 0); stroke-opacity: 1; stroke-width: 1px; opacity: 1;"/><g class="points"/></g><g class="trace scatter trace86febf" style="stroke-miterlimit: 2; opacity: 1;"><g class="points"><path class="point" d="M4,0A4,4 0 1,1 0,-4A4,4 0 0,1 4,0Z" transform="translate(30.73,153.3)" style="opacity: 1; stroke-width: 1px; fill: rgb(227, 111, 71); fill-opacity: 1; stroke: rgb(0, 0, 0); stroke-opacity: 1;"/><path class="point" d="M4,0A4,4 0 1,1 0,-4A4,4 0 0,1 4,0Z" transform="translate(52.91,153.3)" style="opacity: 1; stroke-width: 1px; fill: rgb(227, 111, 71); fill-opacity: 1; stroke: rgb(0, 0, 0); stroke-opacity: 1;"/><path class="point" d="M4,0A4,4 0 1,1 0,-4A4,4 0 0,1 4,0Z" transform="translate(95.1,153.3)" style="opacity: 1; stroke-width: 1px; fill: rgb(227, 111, 71); fill-opacity: 1; stroke: rgb(0, 0, 0); stroke-opacity: 1;"/><path class="point" d="M4,0A4,4 0 1,1 0,-4A4,4 0 0,1 4,0Z" transform="translate(153.16,153.3)" style="opacity: 1; stroke-width: 1px; fill: rgb(227, 111, 71); fill-opacity: 1; stroke: rgb(0, 0, 0); stroke-opacity: 1;"/><path class="point" d="M4,0A4,4 0 1,1 0,-4A4,4 0 0,1 4,0Z" transform="translate(221.43,153.3)" style="opacity: 1; stroke-width: 1px; fill: rgb(227, 111, 71); fill-opacity: 1; stroke: rgb(0, 0, 0); stroke-opacity: 1;"/><path class="point" d="M4,0A4,4 0 1,1 0,-4A4,4 0 0,1 4,0Z" transform="translate(293.2,153.3)" style="opacity: 1; stroke-width: 1px; fill: rgb(227, 111, 71); fill-opacity: 1; stroke: rgb(0, 0, 0); stroke-opacity: 1;"/><path class="point" d="M4,0A4,4 0 1,1 0,-4A4,4 0 0,1 4,0Z" transform="translate(361.46,153.3)" style="opacity: 1; stroke-width: 1px; fill: rgb(227, 111, 71); fill-opacity: 1; stroke: rgb(0, 0, 0); stroke-opacity: 1;"/><path class="point" d="M4,0A4,4 0 1,1 0,-4A4,4 0 0,1 4,0Z" transform="translate(419.53,153.3)" style="opacity: 1; stroke-width: 1px; fill: rgb(227, 111, 71); fill-opacity: 1; stroke: rgb(0, 0, 0); stroke-opacity: 1;"/><path class="point" d="M4,0A4,4 0 1,1 0,-4A4,4 0 0,1 4,0Z" transform="translate(461.72,153.3)" style="opacity: 1; stroke-width: 1px; fill: rgb(227, 111, 71); fill-opacity: 1; stroke: rgb(0, 0, 0); stroke-opacity: 1;"/><path class="point" d="M4,0A4,4 0 1,1 0,-4A4,4 0 0,1 4,0Z" transform="translate(483.89,153.3)" style="opacity: 1; stroke-width: 1px; fill: rgb(227, 111, 71); fill-opacity: 1; stroke: rgb(0, 0, 0); stroke-opacity: 1;"/></g></g></g></g><g class="overplot"/><path class="xlines crisp" transform="translate(81.43700787401575,23.740157480314956)" d="M-1,347.9502405949256h516.6259842519685" style="fill: none; stroke-width: 1px; stroke: rgb(0, 0, 0); stroke-opacity: 1;"/><path class="ylines crisp" transform="translate(81.43700787401575,23.740157480314956)" d="M-0.5,-1v348.4502405949256" stroke-width="1px" style="fill: none; stroke: rgb(0, 0, 0); stroke-opacity: 1;"/><g class="overlines"/><g class="xaxislayer" transform="translate(81.43700787401575,23.740157480314956)"><path class="xtick ticks crisp" d="M0,347.4502405949256v-5" transform="translate(136.31,0)" style="stroke: rgb(0, 0, 0); stroke-opacity: 1; stroke-width: 1px;"/><path class="xtick ticks crisp" d="M0,347.4502405949256v-5" transform="translate(295.69,0)" style="stroke: rgb(0, 0, 0); stroke-opacity: 1; stroke-width: 1px;"/><path class="xtick ticks crisp" d="M0,347.4502405949256v-5" transform="translate(455.08,0)" style="stroke: rgb(0, 0, 0); stroke-opacity: 1; stroke-width: 1px;"/><g class="xtick"><text text-anchor="middle" x="0" y="361.4502405949256" transform="translate(136.31,0)" style="font-family: sans-serif; font-size: 11px; fill: rgb(0, 0, 0); fill-opacity: 1; visibility: visible; white-space: pre;">5</text></g><g class="xtick"><text text-anchor="middle" x="0" y="361.4502405949256" transform="translate(295.69,0)" style="font-family: sans-serif; font-size: 11px; fill: rgb(0, 0, 0); fill-opacity: 1; visibility: visible; white-space: pre;">10</text></g><g class="xtick"><text text-anchor="middle" x="0" y="361.4502405949256" transform="translate(455.08,0)" style="font-family: sans-serif; font-size: 11px; fill: rgb(0, 0, 0); fill-opacity: 1; visibility: visible; white-space: pre;">15</text></g></g><g class="yaxislayer" transform="translate(81.43700787401575,23.740157480314956)"><path class="ytick ticks crisp" d="M0,0h5" transform="translate(0,297.29)" style="stroke: rgb(0, 0, 0); stroke-opacity: 1; stroke-width: 1px;"/><path class="ytick ticks crisp" d="M0,0h5" transform="translate(0,153.3)" style="stroke: rgb(0, 0, 0); stroke-opacity: 1; stroke-width: 1px;"/><path class="ytick ticks crisp" d="M0,0h5" transform="translate(0,9.31)" style="stroke: rgb(0, 0, 0); stroke-opacity: 1; stroke-width: 1px;"/><g class="ytick" data-bb="1585"><text text-anchor="end" x="-3" y="5.5" transform="translate(0,297.29)" style="font-family: sans-serif; font-size: 11px; fill: rgb(0, 0, 0); fill-opacity: 1; visibility: visible; white-space: pre;">-0.0001</text></g><g class="ytick" data-bb="1586"><text text-anchor="end" x="-3" y="5.5" transform="translate(0,153.3)" style="font-family: sans-serif; font-size: 11px; fill: rgb(0, 0, 0); fill-opacity: 1; visibility: visible; white-space: pre;">0.0000</text></g><g class="ytick" data-bb="1587"><text text-anchor="end" x="-3" y="5.5" transform="translate(0,9.31)" style="font-family: sans-serif; font-size: 11px; fill: rgb(0, 0, 0); fill-opacity: 1; visibility: visible; white-space: pre;">0.0001</text></g></g><g class="overaxes"/></g></g><g class="ternarylayer"/><g class="layer-above"><g class="imagelayer"/><g class="shapelayer"/></g><g class="pielayer"/><g class="glimages"/><g class="geoimages"/><text class="js-plot-link-container" y="391" text-anchor="end" x="593" style="font-family: 'Open Sans', Arial, sans-serif; font-size: 12px; fill: rgb(68, 68, 68); pointer-events: all; visibility: visible;"><tspan class="js-link-to-tool"/><tspan class="js-link-spacer"/><tspan class="js-sourcelinks"/></text><g class="infolayer"><g class="g-gtitle"/><g class="g-xtitle" data-bb="1583" transform="translate(0,-29.1875)"><text class="xtitle" x="338.75" y="426.1903980752406" text-anchor="middle" style="font-family: sans-serif; font-size: 15px; fill: rgb(0, 0, 0); opacity: 1; font-weight: normal; white-space: pre; visibility: visible;">k</text></g><g class="g-ytitle" data-bb="1584" transform="translate(-1.6284218134842519,0)"><text class="ytitle" transform="rotate(-90,41.43700787401575,197.46527777777777) translate(0, 0)" x="41.43700787401575" y="197.46527777777777" text-anchor="middle" style="font-family: sans-serif; font-size: 15px; fill: rgb(0, 0, 0); opacity: 1; font-weight: normal; white-space: pre; visibility: visible;">Euler residual</text></g></g></svg>